<svg width="116" height="108" viewBox="0 0 116 108" fill="none" xmlns="http://www.w3.org/2000/svg">
<rect x="7" y="56.9637" width="48.2182" height="20.4" rx="1.85454" fill="#2B4129"/>
<rect x="60.7818" y="56.9637" width="48.2182" height="20.4" rx="1.85454" fill="#2B4129"/>
<rect x="33.8909" y="31" width="48.2182" height="20.4" rx="1.85454" fill="#2B4129"/>
<path d="M14.5592 59.0786L14.8056 61.441L16.7453 60.0702C22.3707 56.0946 30.5434 52.6744 42.2347 52.6744C42.2578 52.6744 42.278 52.6826 42.2948 52.6992C42.303 52.7073 42.3075 52.7149 42.3096 52.7198C42.3113 52.7237 42.3121 52.7269 42.3121 52.7322C42.3121 52.7374 42.3113 52.7407 42.3096 52.7446C42.3075 52.7495 42.303 52.7571 42.2948 52.7652C42.278 52.7817 42.2578 52.7899 42.2347 52.7899C18.4985 52.7899 8.2686 67.1832 5.9297 72.8446L5.92847 72.8476C5.02618 75.0462 6.09874 77.5367 8.29457 78.4296C10.5045 79.3336 13.0157 78.2862 13.9371 76.1204L13.9385 76.117C14.0133 75.94 15.4197 72.7329 19.0856 69.3648C22.4636 73.1861 28.1562 76.5028 35.4282 75.7483C50.7003 74.6416 61.2454 61.1445 61.2454 44.9727C61.2454 40.2423 60.2172 35.3366 58.3862 31.3053C57.3876 29.1061 54.4798 29.0637 53.3192 31.0745C50.7174 35.5352 46.0771 38.3032 40.7664 38.3032H33.4248C22.9467 38.3032 14.414 46.695 14.414 57.0782C14.414 57.7168 14.4797 58.3324 14.5368 58.8679C14.5445 58.9396 14.552 59.0099 14.5592 59.0786Z" fill="#2B4129" stroke="white" stroke-width="2.78182"/>
</svg>
