<svg width="80" height="62" viewBox="0 0 80 62" fill="none" xmlns="http://www.w3.org/2000/svg">
<path d="M38.9394 16.0844L13.3344 37.1017V59.7855C13.3344 60.3728 13.5685 60.9361 13.9852 61.3514C14.4019 61.7667 14.9671 62 15.5564 62L31.1191 61.9599C31.7065 61.9569 32.2689 61.7223 32.6832 61.3073C33.0975 60.8923 33.3301 60.3307 33.3301 59.7453V46.4983C33.3301 45.9109 33.5642 45.3477 33.9809 44.9324C34.3976 44.5171 34.9628 44.2837 35.5521 44.2837H44.4403C45.0297 44.2837 45.5948 44.5171 46.0116 44.9324C46.4283 45.3477 46.6624 45.9109 46.6624 46.4983V59.7356C46.6615 60.027 46.7183 60.3158 46.8295 60.5852C46.9408 60.8547 47.1043 61.0997 47.3107 61.306C47.5172 61.5124 47.7624 61.6761 48.0325 61.7879C48.3025 61.8996 48.592 61.9571 48.8844 61.9571L64.4416 62C65.0309 62 65.5961 61.7667 66.0128 61.3514C66.4295 60.9361 66.6636 60.3728 66.6636 59.7855V37.0865L41.0642 16.0844C40.7632 15.8427 40.3883 15.7108 40.0018 15.7108C39.6152 15.7108 39.2403 15.8427 38.9394 16.0844ZM79.3849 30.3695L67.7746 20.8318V1.6609C67.7746 1.2204 67.5991 0.797946 67.2865 0.486467C66.974 0.174987 66.5501 0 66.1081 0H58.3309C57.8889 0 57.465 0.174987 57.1525 0.486467C56.84 0.797946 56.6644 1.2204 56.6644 1.6609V11.7107L44.2306 1.51557C43.0374 0.536995 41.5401 0.00195619 39.9948 0.00195619C38.4496 0.00195619 36.9523 0.536995 35.7591 1.51557L0.604813 30.3695C0.436058 30.5086 0.296441 30.6793 0.193938 30.8721C0.0914345 31.0649 0.0280545 31.276 0.00741909 31.4932C-0.0132163 31.7104 0.00929742 31.9296 0.0736738 32.1381C0.13805 32.3467 0.243028 32.5405 0.382608 32.7086L3.924 36.9993C4.0632 37.168 4.23442 37.3077 4.42785 37.4103C4.62128 37.513 4.83313 37.5766 5.05126 37.5976C5.2694 37.6185 5.48954 37.5964 5.69909 37.5324C5.90863 37.4685 6.10347 37.364 6.27243 37.2249L38.9394 10.4097C39.2403 10.1679 39.6152 10.0361 40.0018 10.0361C40.3883 10.0361 40.7632 10.1679 41.0642 10.4097L73.7325 37.2249C73.9012 37.364 74.0957 37.4686 74.305 37.5328C74.5142 37.597 74.7341 37.6194 74.9521 37.5988C75.17 37.5783 75.3818 37.5151 75.5753 37.4129C75.7687 37.3108 75.9401 37.1716 76.0796 37.0035L79.621 32.7128C79.7604 32.5437 79.8649 32.3489 79.9285 32.1394C79.9922 31.9299 80.0136 31.71 79.9917 31.4923C79.9697 31.2745 79.9048 31.0632 79.8007 30.8706C79.6965 30.6779 79.5552 30.5076 79.3849 30.3695Z" fill="#2B4129"/>
</svg>
