<svg width="80" height="64" viewBox="0 0 80 64" fill="none" xmlns="http://www.w3.org/2000/svg">
<path d="M77 24H60V3C60 1.3425 58.6575 0 57 0H39C37.3425 0 36 1.3425 36 3V12H28V2C28 0.895 27.105 0 26 0H24C22.895 0 22 0.895 22 2V12H14V2C14 0.895 13.105 0 12 0H10C8.895 0 8 0.895 8 2V12H3C1.3425 12 0 13.3425 0 15V60C0 62.2087 1.79125 64 4 64H76C78.2088 64 80 62.2087 80 60V27C80 25.3425 78.6562 24 77 24ZM16 50.5C16 51.3288 15.3288 52 14.5 52H9.5C8.67125 52 8 51.3288 8 50.5V45.5C8 44.6712 8.67125 44 9.5 44H14.5C15.3288 44 16 44.6712 16 45.5V50.5ZM16 38.5C16 39.3288 15.3288 40 14.5 40H9.5C8.67125 40 8 39.3288 8 38.5V33.5C8 32.6712 8.67125 32 9.5 32H14.5C15.3288 32 16 32.6712 16 33.5V38.5ZM16 26.5C16 27.3288 15.3288 28 14.5 28H9.5C8.67125 28 8 27.3288 8 26.5V21.5C8 20.6712 8.67125 20 9.5 20H14.5C15.3288 20 16 20.6712 16 21.5V26.5ZM32 50.5C32 51.3288 31.3288 52 30.5 52H25.5C24.6713 52 24 51.3288 24 50.5V45.5C24 44.6712 24.6713 44 25.5 44H30.5C31.3288 44 32 44.6712 32 45.5V50.5ZM32 38.5C32 39.3288 31.3288 40 30.5 40H25.5C24.6713 40 24 39.3288 24 38.5V33.5C24 32.6712 24.6713 32 25.5 32H30.5C31.3288 32 32 32.6712 32 33.5V38.5ZM32 26.5C32 27.3288 31.3288 28 30.5 28H25.5C24.6713 28 24 27.3288 24 26.5V21.5C24 20.6712 24.6713 20 25.5 20H30.5C31.3288 20 32 20.6712 32 21.5V26.5ZM52 38.5C52 39.3288 51.3288 40 50.5 40H45.5C44.6713 40 44 39.3288 44 38.5V33.5C44 32.6712 44.6713 32 45.5 32H50.5C51.3288 32 52 32.6712 52 33.5V38.5ZM52 26.5C52 27.3288 51.3288 28 50.5 28H45.5C44.6713 28 44 27.3288 44 26.5V21.5C44 20.6712 44.6713 20 45.5 20H50.5C51.3288 20 52 20.6712 52 21.5V26.5ZM52 14.5C52 15.3287 51.3288 16 50.5 16H45.5C44.6713 16 44 15.3287 44 14.5V9.5C44 8.67125 44.6713 8 45.5 8H50.5C51.3288 8 52 8.67125 52 9.5V14.5ZM72 50.5C72 51.3288 71.3288 52 70.5 52H65.5C64.6713 52 64 51.3288 64 50.5V45.5C64 44.6712 64.6713 44 65.5 44H70.5C71.3288 44 72 44.6712 72 45.5V50.5ZM72 38.5C72 39.3288 71.3288 40 70.5 40H65.5C64.6713 40 64 39.3288 64 38.5V33.5C64 32.6712 64.6713 32 65.5 32H70.5C71.3288 32 72 32.6712 72 33.5V38.5Z" fill="#2B4129"/>
</svg>
