<svg width="184" height="94" viewBox="0 0 184 94" fill="none" xmlns="http://www.w3.org/2000/svg">
<rect x="37" y="31" width="52" height="22" rx="2" fill="white"/>
<rect x="95" y="31" width="52" height="22" rx="2" fill="white"/>
<rect x="66" y="3" width="52" height="22" rx="2" fill="white"/>
<path d="M3.8 83C2.86 83 2.14 82.76 1.64 82.28C1.16 81.78 0.92 81.07 0.92 80.15V64.7C0.92 63.78 1.16 63.08 1.64 62.6C2.14 62.1 2.86 61.85 3.8 61.85H13.97C14.69 61.85 15.23 62.03 15.59 62.39C15.95 62.75 16.13 63.27 16.13 63.95C16.13 64.65 15.95 65.19 15.59 65.57C15.23 65.93 14.69 66.11 13.97 66.11H6.2V70.13H13.31C14.01 70.13 14.54 70.31 14.9 70.67C15.28 71.03 15.47 71.56 15.47 72.26C15.47 72.96 15.28 73.49 14.9 73.85C14.54 74.21 14.01 74.39 13.31 74.39H6.2V78.74H13.97C14.69 78.74 15.23 78.93 15.59 79.31C15.95 79.67 16.13 80.19 16.13 80.87C16.13 81.57 15.95 82.1 15.59 82.46C15.23 82.82 14.69 83 13.97 83H3.8ZM33.0863 83.33C30.7463 83.33 28.7363 82.88 27.0563 81.98C25.3763 81.08 24.0863 79.81 23.1863 78.17C22.3063 76.53 21.8663 74.61 21.8663 72.41C21.8663 70.77 22.1163 69.28 22.6163 67.94C23.1363 66.6 23.8763 65.45 24.8363 64.49C25.8163 63.53 26.9963 62.8 28.3763 62.3C29.7763 61.78 31.3463 61.52 33.0863 61.52C34.0063 61.52 34.9563 61.63 35.9363 61.85C36.9363 62.05 37.8163 62.36 38.5763 62.78C39.1363 63.08 39.5263 63.46 39.7463 63.92C39.9663 64.38 40.0363 64.85 39.9563 65.33C39.8963 65.81 39.7263 66.24 39.4463 66.62C39.1663 67 38.8063 67.26 38.3663 67.4C37.9263 67.52 37.4463 67.45 36.9263 67.19C36.3263 66.91 35.7263 66.7 35.1263 66.56C34.5463 66.4 33.9363 66.32 33.2963 66.32C32.0563 66.32 31.0163 66.56 30.1763 67.04C29.3563 67.5 28.7363 68.18 28.3163 69.08C27.8963 69.98 27.6863 71.09 27.6863 72.41C27.6863 73.73 27.8963 74.85 28.3163 75.77C28.7363 76.67 29.3563 77.36 30.1763 77.84C31.0163 78.3 32.0563 78.53 33.2963 78.53C33.8163 78.53 34.3763 78.47 34.9763 78.35C35.5763 78.21 36.1663 78 36.7463 77.72C37.3463 77.46 37.8763 77.39 38.3363 77.51C38.8163 77.63 39.1963 77.87 39.4763 78.23C39.7763 78.59 39.9663 79.01 40.0463 79.49C40.1263 79.95 40.0563 80.41 39.8363 80.87C39.6363 81.33 39.2763 81.7 38.7563 81.98C38.0563 82.4 37.1863 82.73 36.1463 82.97C35.1263 83.21 34.1063 83.33 33.0863 83.33ZM55.5575 83.33C53.4175 83.33 51.5375 82.88 49.9175 81.98C48.2975 81.06 47.0375 79.78 46.1375 78.14C45.2575 76.5 44.8175 74.59 44.8175 72.41C44.8175 70.77 45.0675 69.28 45.5675 67.94C46.0875 66.6 46.8175 65.45 47.7575 64.49C48.7175 63.53 49.8575 62.8 51.1775 62.3C52.4975 61.78 53.9575 61.52 55.5575 61.52C57.6975 61.52 59.5675 61.97 61.1675 62.87C62.7875 63.77 64.0475 65.04 64.9475 66.68C65.8475 68.3 66.2975 70.21 66.2975 72.41C66.2975 74.05 66.0375 75.54 65.5175 76.88C65.0175 78.22 64.2875 79.38 63.3275 80.36C62.3875 81.32 61.2575 82.06 59.9375 82.58C58.6175 83.08 57.1575 83.33 55.5575 83.33ZM55.5575 78.71C56.6175 78.71 57.5175 78.46 58.2575 77.96C58.9975 77.46 59.5675 76.74 59.9675 75.8C60.3675 74.86 60.5675 73.73 60.5675 72.41C60.5675 70.43 60.1275 68.89 59.2475 67.79C58.3675 66.69 57.1375 66.14 55.5575 66.14C54.5175 66.14 53.6175 66.39 52.8575 66.89C52.1175 67.37 51.5475 68.08 51.1475 69.02C50.7475 69.94 50.5475 71.07 50.5475 72.41C50.5475 74.39 50.9875 75.94 51.8675 77.06C52.7475 78.16 53.9775 78.71 55.5575 78.71ZM80.4167 83.33C79.6167 83.33 78.7767 83.27 77.8967 83.15C77.0367 83.05 76.2167 82.89 75.4367 82.67C74.6567 82.45 73.9567 82.19 73.3367 81.89C72.7967 81.63 72.4167 81.29 72.1967 80.87C71.9767 80.43 71.8967 79.97 71.9567 79.49C72.0167 79.01 72.1867 78.59 72.4667 78.23C72.7467 77.85 73.1167 77.6 73.5767 77.48C74.0367 77.34 74.5567 77.4 75.1367 77.66C75.8967 78.02 76.7567 78.3 77.7167 78.5C78.6767 78.7 79.5767 78.8 80.4167 78.8C81.7367 78.8 82.6567 78.63 83.1767 78.29C83.7167 77.93 83.9867 77.49 83.9867 76.97C83.9867 76.51 83.7967 76.14 83.4167 75.86C83.0567 75.58 82.4067 75.34 81.4667 75.14L77.9567 74.39C76.0367 73.99 74.6067 73.29 73.6667 72.29C72.7267 71.29 72.2567 70 72.2567 68.42C72.2567 67.38 72.4667 66.44 72.8867 65.6C73.3267 64.74 73.9367 64.01 74.7167 63.41C75.5167 62.81 76.4567 62.35 77.5367 62.03C78.6367 61.69 79.8567 61.52 81.1967 61.52C82.2367 61.52 83.2867 61.64 84.3467 61.88C85.4267 62.1 86.3567 62.44 87.1367 62.9C87.5967 63.14 87.9267 63.47 88.1267 63.89C88.3267 64.31 88.4067 64.75 88.3667 65.21C88.3267 65.65 88.1667 66.04 87.8867 66.38C87.6267 66.72 87.2667 66.95 86.8067 67.07C86.3667 67.17 85.8367 67.09 85.2167 66.83C84.6367 66.57 83.9767 66.38 83.2367 66.26C82.5167 66.12 81.8167 66.05 81.1367 66.05C80.3967 66.05 79.7667 66.14 79.2467 66.32C78.7267 66.48 78.3267 66.72 78.0467 67.04C77.7867 67.36 77.6567 67.73 77.6567 68.15C77.6567 68.57 77.8267 68.93 78.1667 69.23C78.5267 69.51 79.1767 69.75 80.1167 69.95L83.5967 70.7C85.5367 71.12 86.9867 71.81 87.9467 72.77C88.9067 73.73 89.3867 74.98 89.3867 76.52C89.3867 77.56 89.1767 78.5 88.7567 79.34C88.3367 80.18 87.7367 80.9 86.9567 81.5C86.1767 82.08 85.2367 82.53 84.1367 82.85C83.0367 83.17 81.7967 83.33 80.4167 83.33ZM102.398 83.27C101.518 83.27 100.838 83.03 100.358 82.55C99.8783 82.05 99.6383 81.36 99.6383 80.48V66.35H94.9283C94.1883 66.35 93.6183 66.16 93.2183 65.78C92.8383 65.38 92.6483 64.82 92.6483 64.1C92.6483 63.36 92.8383 62.8 93.2183 62.42C93.6183 62.04 94.1883 61.85 94.9283 61.85H109.868C110.608 61.85 111.168 62.04 111.548 62.42C111.948 62.8 112.148 63.36 112.148 64.1C112.148 64.82 111.948 65.38 111.548 65.78C111.168 66.16 110.608 66.35 109.868 66.35H105.158V80.48C105.158 81.36 104.928 82.05 104.468 82.55C104.008 83.03 103.318 83.27 102.398 83.27ZM119.725 83.27C118.845 83.27 118.165 83.03 117.685 82.55C117.205 82.05 116.965 81.36 116.965 80.48V64.64C116.965 63.74 117.205 63.05 117.685 62.57C118.185 62.09 118.875 61.85 119.755 61.85H127.135C129.535 61.85 131.385 62.44 132.685 63.62C134.005 64.78 134.665 66.4 134.665 68.48C134.665 69.82 134.365 70.99 133.765 71.99C133.185 72.97 132.335 73.73 131.215 74.27C130.115 74.79 128.755 75.05 127.135 75.05L127.375 74.51H128.815C129.675 74.51 130.435 74.72 131.095 75.14C131.755 75.54 132.305 76.16 132.745 77L134.245 79.7C134.565 80.28 134.715 80.85 134.695 81.41C134.675 81.95 134.455 82.4 134.035 82.76C133.635 83.1 133.045 83.27 132.265 83.27C131.485 83.27 130.845 83.11 130.345 82.79C129.865 82.47 129.435 81.97 129.055 81.29L126.325 76.28C126.085 75.84 125.775 75.54 125.395 75.38C125.035 75.2 124.615 75.11 124.135 75.11H122.485V80.48C122.485 81.36 122.255 82.05 121.795 82.55C121.335 83.03 120.645 83.27 119.725 83.27ZM122.485 71.21H126.145C127.205 71.21 128.015 71 128.575 70.58C129.135 70.16 129.415 69.51 129.415 68.63C129.415 67.79 129.135 67.16 128.575 66.74C128.015 66.3 127.205 66.08 126.145 66.08H122.485V71.21ZM151.2 83.33C149.06 83.33 147.18 82.88 145.56 81.98C143.94 81.06 142.68 79.78 141.78 78.14C140.9 76.5 140.46 74.59 140.46 72.41C140.46 70.77 140.71 69.28 141.21 67.94C141.73 66.6 142.46 65.45 143.4 64.49C144.36 63.53 145.5 62.8 146.82 62.3C148.14 61.78 149.6 61.52 151.2 61.52C153.34 61.52 155.21 61.97 156.81 62.87C158.43 63.77 159.69 65.04 160.59 66.68C161.49 68.3 161.94 70.21 161.94 72.41C161.94 74.05 161.68 75.54 161.16 76.88C160.66 78.22 159.93 79.38 158.97 80.36C158.03 81.32 156.9 82.06 155.58 82.58C154.26 83.08 152.8 83.33 151.2 83.33ZM151.2 78.71C152.26 78.71 153.16 78.46 153.9 77.96C154.64 77.46 155.21 76.74 155.61 75.8C156.01 74.86 156.21 73.73 156.21 72.41C156.21 70.43 155.77 68.89 154.89 67.79C154.01 66.69 152.78 66.14 151.2 66.14C150.16 66.14 149.26 66.39 148.5 66.89C147.76 67.37 147.19 68.08 146.79 69.02C146.39 69.94 146.19 71.07 146.19 72.41C146.19 74.39 146.63 75.94 147.51 77.06C148.39 78.16 149.62 78.71 151.2 78.71ZM174.709 83.27C173.829 83.27 173.149 83.03 172.669 82.55C172.189 82.05 171.949 81.34 171.949 80.42V72.2L173.089 75.23L166.189 65.3C165.849 64.82 165.699 64.29 165.739 63.71C165.799 63.11 166.039 62.61 166.459 62.21C166.899 61.79 167.519 61.58 168.319 61.58C168.879 61.58 169.389 61.72 169.849 62C170.309 62.26 170.739 62.71 171.139 63.35L175.339 69.53H174.259L178.459 63.32C178.879 62.68 179.309 62.23 179.749 61.97C180.189 61.71 180.709 61.58 181.309 61.58C182.069 61.58 182.659 61.77 183.079 62.15C183.499 62.53 183.719 63.01 183.739 63.59C183.779 64.17 183.599 64.76 183.199 65.36L176.359 75.23L177.469 72.2V80.42C177.469 82.32 176.549 83.27 174.709 83.27Z" fill="white"/>
<path d="M45.152 33.2809L45.4178 35.8285L47.5096 34.3502C53.5762 30.0628 62.3899 26.3744 74.9982 26.3744C75.0231 26.3744 75.045 26.3833 75.063 26.4011C75.0719 26.4098 75.0767 26.418 75.079 26.4233C75.0808 26.4275 75.0817 26.431 75.0817 26.4367C75.0817 26.4423 75.0808 26.4459 75.079 26.45C75.0767 26.4553 75.0719 26.4635 75.063 26.4723C75.045 26.4901 75.0231 26.499 74.9982 26.499C49.4004 26.499 38.3681 42.0211 35.8458 48.1266L35.8444 48.1298C34.8714 50.5008 36.0281 53.1866 38.3961 54.1496C40.7794 55.1245 43.4875 53.9949 44.4812 51.6593L44.4827 51.6556C44.5633 51.4647 46.0801 48.0061 50.0335 44.3739C53.6765 48.4949 59.8156 52.0717 67.6579 51.258C84.1278 50.0645 95.5 35.5088 95.5 18.0686C95.5 12.9672 94.3911 7.67657 92.4165 3.32914C91.3395 0.957549 88.2036 0.911885 86.9521 3.08034C84.1462 7.89091 79.142 10.8761 73.4147 10.8761H65.4973C54.1974 10.8761 44.9955 19.9259 44.9955 31.1235C44.9955 31.8123 45.0663 32.4761 45.128 33.0537C45.1362 33.131 45.1443 33.2068 45.152 33.2809Z" fill="white" stroke="#2B4129" stroke-width="3"/>
</svg>
