<svg width="184" height="128" viewBox="0 0 184 128" fill="none" xmlns="http://www.w3.org/2000/svg">
<rect x="37" y="31" width="52" height="22" rx="2" fill="#D8ECD7"/>
<rect x="95" y="31" width="52" height="22" rx="2" fill="#D8ECD7"/>
<rect x="66" y="3" width="52" height="22" rx="2" fill="#D8ECD7"/>
<path d="M3.8 83C2.86 83 2.14 82.76 1.64 82.28C1.16 81.78 0.92 81.07 0.92 80.15V64.7C0.92 63.78 1.16 63.08 1.64 62.6C2.14 62.1 2.86 61.85 3.8 61.85H13.97C14.69 61.85 15.23 62.03 15.59 62.39C15.95 62.75 16.13 63.27 16.13 63.95C16.13 64.65 15.95 65.19 15.59 65.57C15.23 65.93 14.69 66.11 13.97 66.11H6.2V70.13H13.31C14.01 70.13 14.54 70.31 14.9 70.67C15.28 71.03 15.47 71.56 15.47 72.26C15.47 72.96 15.28 73.49 14.9 73.85C14.54 74.21 14.01 74.39 13.31 74.39H6.2V78.74H13.97C14.69 78.74 15.23 78.93 15.59 79.31C15.95 79.67 16.13 80.19 16.13 80.87C16.13 81.57 15.95 82.1 15.59 82.46C15.23 82.82 14.69 83 13.97 83H3.8ZM33.0863 83.33C30.7463 83.33 28.7363 82.88 27.0563 81.98C25.3763 81.08 24.0863 79.81 23.1863 78.17C22.3063 76.53 21.8663 74.61 21.8663 72.41C21.8663 70.77 22.1163 69.28 22.6163 67.94C23.1363 66.6 23.8763 65.45 24.8363 64.49C25.8163 63.53 26.9963 62.8 28.3763 62.3C29.7763 61.78 31.3463 61.52 33.0863 61.52C34.0063 61.52 34.9563 61.63 35.9363 61.85C36.9363 62.05 37.8163 62.36 38.5763 62.78C39.1363 63.08 39.5263 63.46 39.7463 63.92C39.9663 64.38 40.0363 64.85 39.9563 65.33C39.8963 65.81 39.7263 66.24 39.4463 66.62C39.1663 67 38.8063 67.26 38.3663 67.4C37.9263 67.52 37.4463 67.45 36.9263 67.19C36.3263 66.91 35.7263 66.7 35.1263 66.56C34.5463 66.4 33.9363 66.32 33.2963 66.32C32.0563 66.32 31.0163 66.56 30.1763 67.04C29.3563 67.5 28.7363 68.18 28.3163 69.08C27.8963 69.98 27.6863 71.09 27.6863 72.41C27.6863 73.73 27.8963 74.85 28.3163 75.77C28.7363 76.67 29.3563 77.36 30.1763 77.84C31.0163 78.3 32.0563 78.53 33.2963 78.53C33.8163 78.53 34.3763 78.47 34.9763 78.35C35.5763 78.21 36.1663 78 36.7463 77.72C37.3463 77.46 37.8763 77.39 38.3363 77.51C38.8163 77.63 39.1963 77.87 39.4763 78.23C39.7763 78.59 39.9663 79.01 40.0463 79.49C40.1263 79.95 40.0563 80.41 39.8363 80.87C39.6363 81.33 39.2763 81.7 38.7563 81.98C38.0563 82.4 37.1863 82.73 36.1463 82.97C35.1263 83.21 34.1063 83.33 33.0863 83.33ZM55.5575 83.33C53.4175 83.33 51.5375 82.88 49.9175 81.98C48.2975 81.06 47.0375 79.78 46.1375 78.14C45.2575 76.5 44.8175 74.59 44.8175 72.41C44.8175 70.77 45.0675 69.28 45.5675 67.94C46.0875 66.6 46.8175 65.45 47.7575 64.49C48.7175 63.53 49.8575 62.8 51.1775 62.3C52.4975 61.78 53.9575 61.52 55.5575 61.52C57.6975 61.52 59.5675 61.97 61.1675 62.87C62.7875 63.77 64.0475 65.04 64.9475 66.68C65.8475 68.3 66.2975 70.21 66.2975 72.41C66.2975 74.05 66.0375 75.54 65.5175 76.88C65.0175 78.22 64.2875 79.38 63.3275 80.36C62.3875 81.32 61.2575 82.06 59.9375 82.58C58.6175 83.08 57.1575 83.33 55.5575 83.33ZM55.5575 78.71C56.6175 78.71 57.5175 78.46 58.2575 77.96C58.9975 77.46 59.5675 76.74 59.9675 75.8C60.3675 74.86 60.5675 73.73 60.5675 72.41C60.5675 70.43 60.1275 68.89 59.2475 67.79C58.3675 66.69 57.1375 66.14 55.5575 66.14C54.5175 66.14 53.6175 66.39 52.8575 66.89C52.1175 67.37 51.5475 68.08 51.1475 69.02C50.7475 69.94 50.5475 71.07 50.5475 72.41C50.5475 74.39 50.9875 75.94 51.8675 77.06C52.7475 78.16 53.9775 78.71 55.5575 78.71ZM80.4167 83.33C79.6167 83.33 78.7767 83.27 77.8967 83.15C77.0367 83.05 76.2167 82.89 75.4367 82.67C74.6567 82.45 73.9567 82.19 73.3367 81.89C72.7967 81.63 72.4167 81.29 72.1967 80.87C71.9767 80.43 71.8967 79.97 71.9567 79.49C72.0167 79.01 72.1867 78.59 72.4667 78.23C72.7467 77.85 73.1167 77.6 73.5767 77.48C74.0367 77.34 74.5567 77.4 75.1367 77.66C75.8967 78.02 76.7567 78.3 77.7167 78.5C78.6767 78.7 79.5767 78.8 80.4167 78.8C81.7367 78.8 82.6567 78.63 83.1767 78.29C83.7167 77.93 83.9867 77.49 83.9867 76.97C83.9867 76.51 83.7967 76.14 83.4167 75.86C83.0567 75.58 82.4067 75.34 81.4667 75.14L77.9567 74.39C76.0367 73.99 74.6067 73.29 73.6667 72.29C72.7267 71.29 72.2567 70 72.2567 68.42C72.2567 67.38 72.4667 66.44 72.8867 65.6C73.3267 64.74 73.9367 64.01 74.7167 63.41C75.5167 62.81 76.4567 62.35 77.5367 62.03C78.6367 61.69 79.8567 61.52 81.1967 61.52C82.2367 61.52 83.2867 61.64 84.3467 61.88C85.4267 62.1 86.3567 62.44 87.1367 62.9C87.5967 63.14 87.9267 63.47 88.1267 63.89C88.3267 64.31 88.4067 64.75 88.3667 65.21C88.3267 65.65 88.1667 66.04 87.8867 66.38C87.6267 66.72 87.2667 66.95 86.8067 67.07C86.3667 67.17 85.8367 67.09 85.2167 66.83C84.6367 66.57 83.9767 66.38 83.2367 66.26C82.5167 66.12 81.8167 66.05 81.1367 66.05C80.3967 66.05 79.7667 66.14 79.2467 66.32C78.7267 66.48 78.3267 66.72 78.0467 67.04C77.7867 67.36 77.6567 67.73 77.6567 68.15C77.6567 68.57 77.8267 68.93 78.1667 69.23C78.5267 69.51 79.1767 69.75 80.1167 69.95L83.5967 70.7C85.5367 71.12 86.9867 71.81 87.9467 72.77C88.9067 73.73 89.3867 74.98 89.3867 76.52C89.3867 77.56 89.1767 78.5 88.7567 79.34C88.3367 80.18 87.7367 80.9 86.9567 81.5C86.1767 82.08 85.2367 82.53 84.1367 82.85C83.0367 83.17 81.7967 83.33 80.4167 83.33ZM102.398 83.27C101.518 83.27 100.838 83.03 100.358 82.55C99.8783 82.05 99.6383 81.36 99.6383 80.48V66.35H94.9283C94.1883 66.35 93.6183 66.16 93.2183 65.78C92.8383 65.38 92.6483 64.82 92.6483 64.1C92.6483 63.36 92.8383 62.8 93.2183 62.42C93.6183 62.04 94.1883 61.85 94.9283 61.85H109.868C110.608 61.85 111.168 62.04 111.548 62.42C111.948 62.8 112.148 63.36 112.148 64.1C112.148 64.82 111.948 65.38 111.548 65.78C111.168 66.16 110.608 66.35 109.868 66.35H105.158V80.48C105.158 81.36 104.928 82.05 104.468 82.55C104.008 83.03 103.318 83.27 102.398 83.27ZM119.725 83.27C118.845 83.27 118.165 83.03 117.685 82.55C117.205 82.05 116.965 81.36 116.965 80.48V64.64C116.965 63.74 117.205 63.05 117.685 62.57C118.185 62.09 118.875 61.85 119.755 61.85H127.135C129.535 61.85 131.385 62.44 132.685 63.62C134.005 64.78 134.665 66.4 134.665 68.48C134.665 69.82 134.365 70.99 133.765 71.99C133.185 72.97 132.335 73.73 131.215 74.27C130.115 74.79 128.755 75.05 127.135 75.05L127.375 74.51H128.815C129.675 74.51 130.435 74.72 131.095 75.14C131.755 75.54 132.305 76.16 132.745 77L134.245 79.7C134.565 80.28 134.715 80.85 134.695 81.41C134.675 81.95 134.455 82.4 134.035 82.76C133.635 83.1 133.045 83.27 132.265 83.27C131.485 83.27 130.845 83.11 130.345 82.79C129.865 82.47 129.435 81.97 129.055 81.29L126.325 76.28C126.085 75.84 125.775 75.54 125.395 75.38C125.035 75.2 124.615 75.11 124.135 75.11H122.485V80.48C122.485 81.36 122.255 82.05 121.795 82.55C121.335 83.03 120.645 83.27 119.725 83.27ZM122.485 71.21H126.145C127.205 71.21 128.015 71 128.575 70.58C129.135 70.16 129.415 69.51 129.415 68.63C129.415 67.79 129.135 67.16 128.575 66.74C128.015 66.3 127.205 66.08 126.145 66.08H122.485V71.21ZM151.2 83.33C149.06 83.33 147.18 82.88 145.56 81.98C143.94 81.06 142.68 79.78 141.78 78.14C140.9 76.5 140.46 74.59 140.46 72.41C140.46 70.77 140.71 69.28 141.21 67.94C141.73 66.6 142.46 65.45 143.4 64.49C144.36 63.53 145.5 62.8 146.82 62.3C148.14 61.78 149.6 61.52 151.2 61.52C153.34 61.52 155.21 61.97 156.81 62.87C158.43 63.77 159.69 65.04 160.59 66.68C161.49 68.3 161.94 70.21 161.94 72.41C161.94 74.05 161.68 75.54 161.16 76.88C160.66 78.22 159.93 79.38 158.97 80.36C158.03 81.32 156.9 82.06 155.58 82.58C154.26 83.08 152.8 83.33 151.2 83.33ZM151.2 78.71C152.26 78.71 153.16 78.46 153.9 77.96C154.64 77.46 155.21 76.74 155.61 75.8C156.01 74.86 156.21 73.73 156.21 72.41C156.21 70.43 155.77 68.89 154.89 67.79C154.01 66.69 152.78 66.14 151.2 66.14C150.16 66.14 149.26 66.39 148.5 66.89C147.76 67.37 147.19 68.08 146.79 69.02C146.39 69.94 146.19 71.07 146.19 72.41C146.19 74.39 146.63 75.94 147.51 77.06C148.39 78.16 149.62 78.71 151.2 78.71ZM174.709 83.27C173.829 83.27 173.149 83.03 172.669 82.55C172.189 82.05 171.949 81.34 171.949 80.42V72.2L173.089 75.23L166.189 65.3C165.849 64.82 165.699 64.29 165.739 63.71C165.799 63.11 166.039 62.61 166.459 62.21C166.899 61.79 167.519 61.58 168.319 61.58C168.879 61.58 169.389 61.72 169.849 62C170.309 62.26 170.739 62.71 171.139 63.35L175.339 69.53H174.259L178.459 63.32C178.879 62.68 179.309 62.23 179.749 61.97C180.189 61.71 180.709 61.58 181.309 61.58C182.069 61.58 182.659 61.77 183.079 62.15C183.499 62.53 183.719 63.01 183.739 63.59C183.779 64.17 183.599 64.76 183.199 65.36L176.359 75.23L177.469 72.2V80.42C177.469 82.32 176.549 83.27 174.709 83.27Z" fill="#D8ECD7"/>
<path d="M45.152 33.2809L45.4178 35.8285L47.5096 34.3502C53.5762 30.0628 62.3899 26.3744 74.9982 26.3744C75.0231 26.3744 75.045 26.3833 75.063 26.4011C75.0719 26.4098 75.0767 26.418 75.079 26.4233C75.0808 26.4275 75.0817 26.431 75.0817 26.4367C75.0817 26.4423 75.0808 26.4459 75.079 26.45C75.0767 26.4553 75.0719 26.4635 75.063 26.4723C75.045 26.4901 75.0231 26.499 74.9982 26.499C49.4004 26.499 38.3681 42.0211 35.8458 48.1266L35.8444 48.1298C34.8714 50.5008 36.0281 53.1866 38.3961 54.1496C40.7794 55.1245 43.4875 53.9949 44.4812 51.6593L44.4827 51.6556C44.5633 51.4647 46.0801 48.0061 50.0335 44.3739C53.6765 48.4949 59.8156 52.0717 67.6579 51.258C84.1278 50.0645 95.5 35.5088 95.5 18.0686C95.5 12.9672 94.3911 7.67657 92.4165 3.32914C91.3395 0.957549 88.2036 0.911885 86.9521 3.08034C84.1462 7.89091 79.142 10.8761 73.4147 10.8761H65.4973C54.1974 10.8761 44.9955 19.9259 44.9955 31.1235C44.9955 31.8123 45.0663 32.4761 45.128 33.0537C45.1362 33.131 45.1443 33.2068 45.152 33.2809Z" fill="#D8ECD7" stroke="#2B4129" stroke-width="3"/>
<path d="M37.025 119.225C36.1583 119.225 35.3167 119.125 34.5 118.925C33.6833 118.725 32.9833 118.433 32.4 118.05C32.2 117.917 32.0583 117.767 31.975 117.6C31.9083 117.433 31.8833 117.267 31.9 117.1C31.9167 116.933 31.975 116.792 32.075 116.675C32.1917 116.558 32.3417 116.492 32.525 116.475C32.725 116.442 32.9333 116.5 33.15 116.65C33.6833 116.983 34.2833 117.233 34.95 117.4C35.6333 117.567 36.3083 117.65 36.975 117.65C38.1917 117.65 39.0583 117.475 39.575 117.125C40.0917 116.758 40.35 116.242 40.35 115.575C40.35 114.925 40.125 114.433 39.675 114.1C39.2417 113.767 38.625 113.6 37.825 113.6H35.65C35.3833 113.6 35.1667 113.533 35 113.4C34.85 113.25 34.775 113.058 34.775 112.825C34.775 112.592 34.85 112.408 35 112.275C35.1667 112.142 35.3833 112.075 35.65 112.075H37.575C38.2917 112.075 38.8583 111.908 39.275 111.575C39.7083 111.242 39.925 110.783 39.925 110.2C39.925 109.583 39.7 109.1 39.25 108.75C38.8 108.383 38.0417 108.2 36.975 108.2C36.325 108.2 35.7 108.275 35.1 108.425C34.5 108.558 33.925 108.783 33.375 109.1C33.075 109.25 32.825 109.3 32.625 109.25C32.425 109.183 32.275 109.058 32.175 108.875C32.075 108.692 32.0583 108.492 32.125 108.275C32.1917 108.058 32.35 107.883 32.6 107.75C33.25 107.367 33.9667 107.083 34.75 106.9C35.5333 106.717 36.3583 106.625 37.225 106.625C38.7583 106.625 39.9083 106.925 40.675 107.525C41.4583 108.125 41.85 108.967 41.85 110.05C41.85 110.817 41.5833 111.467 41.05 112C40.5167 112.533 39.8083 112.85 38.925 112.95V112.625C39.9417 112.658 40.75 112.95 41.35 113.5C41.9667 114.033 42.275 114.75 42.275 115.65C42.275 116.733 41.8333 117.6 40.95 118.25C40.0667 118.9 38.7583 119.225 37.025 119.225ZM51.7768 119.225C50.9434 119.225 50.1934 119.067 49.5268 118.75C48.8768 118.417 48.3601 117.967 47.9768 117.4C47.5934 116.833 47.4018 116.2 47.4018 115.5C47.4018 114.6 47.6268 113.892 48.0768 113.375C48.5434 112.858 49.3018 112.492 50.3518 112.275C51.4184 112.058 52.8684 111.95 54.7018 111.95H55.8268V113.275H54.7268C53.3768 113.275 52.3101 113.342 51.5268 113.475C50.7601 113.592 50.2184 113.8 49.9018 114.1C49.6018 114.4 49.4518 114.825 49.4518 115.375C49.4518 116.058 49.6851 116.617 50.1518 117.05C50.6351 117.483 51.2851 117.7 52.1018 117.7C52.7684 117.7 53.3518 117.542 53.8518 117.225C54.3684 116.908 54.7684 116.475 55.0518 115.925C55.3518 115.375 55.5018 114.742 55.5018 114.025V111.175C55.5018 110.142 55.2934 109.4 54.8768 108.95C54.4601 108.483 53.7768 108.25 52.8268 108.25C52.2434 108.25 51.6601 108.325 51.0768 108.475C50.4934 108.625 49.8768 108.867 49.2268 109.2C48.9934 109.317 48.7934 109.358 48.6268 109.325C48.4601 109.275 48.3268 109.183 48.2268 109.05C48.1268 108.917 48.0684 108.767 48.0518 108.6C48.0351 108.417 48.0684 108.242 48.1518 108.075C48.2518 107.908 48.4018 107.775 48.6018 107.675C49.3351 107.308 50.0601 107.042 50.7768 106.875C51.4934 106.708 52.1768 106.625 52.8268 106.625C53.8768 106.625 54.7434 106.8 55.4268 107.15C56.1101 107.483 56.6184 108 56.9518 108.7C57.2851 109.383 57.4518 110.267 57.4518 111.35V118.125C57.4518 118.458 57.3684 118.717 57.2018 118.9C57.0518 119.083 56.8268 119.175 56.5268 119.175C56.2101 119.175 55.9684 119.083 55.8018 118.9C55.6351 118.717 55.5518 118.458 55.5518 118.125V116.175H55.7768C55.6434 116.808 55.3851 117.35 55.0018 117.8C54.6351 118.25 54.1768 118.6 53.6268 118.85C53.0768 119.1 52.4601 119.225 51.7768 119.225ZM64.9283 119.175C64.595 119.175 64.3367 119.083 64.1533 118.9C63.9867 118.7 63.9033 118.425 63.9033 118.075V108C63.9033 107.617 64.0033 107.333 64.2033 107.15C64.4033 106.95 64.6867 106.85 65.0533 106.85H71.6783C71.995 106.85 72.2283 106.917 72.3783 107.05C72.5283 107.183 72.6033 107.383 72.6033 107.65C72.6033 107.917 72.5283 108.125 72.3783 108.275C72.2283 108.408 71.995 108.475 71.6783 108.475H65.9283V118.075C65.9283 118.808 65.595 119.175 64.9283 119.175ZM78.2926 123.675C77.9592 123.675 77.7092 123.583 77.5426 123.4C77.3759 123.233 77.2926 122.983 77.2926 122.65V107.7C77.2926 107.367 77.3759 107.117 77.5426 106.95C77.7092 106.767 77.9509 106.675 78.2676 106.675C78.6009 106.675 78.8509 106.767 79.0176 106.95C79.2009 107.117 79.2926 107.367 79.2926 107.7V110.075L79.0176 109.725C79.2842 108.775 79.8092 108.025 80.5926 107.475C81.3926 106.908 82.3426 106.625 83.4426 106.625C84.5259 106.625 85.4676 106.883 86.2676 107.4C87.0842 107.9 87.7092 108.625 88.1426 109.575C88.5926 110.508 88.8176 111.625 88.8176 112.925C88.8176 114.208 88.5926 115.325 88.1426 116.275C87.7092 117.208 87.0926 117.933 86.2926 118.45C85.4926 118.967 84.5426 119.225 83.4426 119.225C82.3426 119.225 81.4009 118.95 80.6176 118.4C79.8342 117.833 79.3009 117.083 79.0176 116.15H79.3176V122.65C79.3176 122.983 79.2259 123.233 79.0426 123.4C78.8592 123.583 78.6092 123.675 78.2926 123.675ZM83.0176 117.6C83.7842 117.6 84.4426 117.417 84.9926 117.05C85.5592 116.683 85.9926 116.15 86.2926 115.45C86.6092 114.75 86.7676 113.908 86.7676 112.925C86.7676 111.408 86.4259 110.25 85.7426 109.45C85.0759 108.65 84.1676 108.25 83.0176 108.25C82.2676 108.25 81.6092 108.433 81.0426 108.8C80.4759 109.15 80.0342 109.675 79.7176 110.375C79.4176 111.058 79.2676 111.908 79.2676 112.925C79.2676 114.425 79.6092 115.583 80.2926 116.4C80.9759 117.2 81.8842 117.6 83.0176 117.6ZM97.1654 123.675C96.9154 123.675 96.7154 123.608 96.5654 123.475C96.4154 123.342 96.3238 123.158 96.2904 122.925C96.2738 122.708 96.3154 122.483 96.4154 122.25L98.1404 118.375V119.25L93.3404 108.1C93.2404 107.85 93.2071 107.617 93.2404 107.4C93.2738 107.183 93.3738 107.008 93.5404 106.875C93.7071 106.742 93.9404 106.675 94.2404 106.675C94.5071 106.675 94.7154 106.733 94.8654 106.85C95.0154 106.967 95.1488 107.175 95.2654 107.475L99.3654 117.525H98.6904L102.84 107.475C102.974 107.175 103.115 106.967 103.265 106.85C103.415 106.733 103.632 106.675 103.915 106.675C104.182 106.675 104.382 106.742 104.515 106.875C104.665 107.008 104.749 107.183 104.765 107.4C104.799 107.6 104.765 107.825 104.665 108.075L98.2654 122.875C98.1321 123.175 97.9821 123.383 97.8154 123.5C97.6654 123.617 97.4488 123.675 97.1654 123.675ZM114.027 119.225C113.16 119.225 112.319 119.125 111.502 118.925C110.685 118.725 109.985 118.433 109.402 118.05C109.202 117.917 109.06 117.767 108.977 117.6C108.91 117.433 108.885 117.267 108.902 117.1C108.919 116.933 108.977 116.792 109.077 116.675C109.194 116.558 109.344 116.492 109.527 116.475C109.727 116.442 109.935 116.5 110.152 116.65C110.685 116.983 111.285 117.233 111.952 117.4C112.635 117.567 113.31 117.65 113.977 117.65C115.194 117.65 116.06 117.475 116.577 117.125C117.094 116.758 117.352 116.242 117.352 115.575C117.352 114.925 117.127 114.433 116.677 114.1C116.244 113.767 115.627 113.6 114.827 113.6H112.652C112.385 113.6 112.169 113.533 112.002 113.4C111.852 113.25 111.777 113.058 111.777 112.825C111.777 112.592 111.852 112.408 112.002 112.275C112.169 112.142 112.385 112.075 112.652 112.075H114.577C115.294 112.075 115.86 111.908 116.277 111.575C116.71 111.242 116.927 110.783 116.927 110.2C116.927 109.583 116.702 109.1 116.252 108.75C115.802 108.383 115.044 108.2 113.977 108.2C113.327 108.2 112.702 108.275 112.102 108.425C111.502 108.558 110.927 108.783 110.377 109.1C110.077 109.25 109.827 109.3 109.627 109.25C109.427 109.183 109.277 109.058 109.177 108.875C109.077 108.692 109.06 108.492 109.127 108.275C109.194 108.058 109.352 107.883 109.602 107.75C110.252 107.367 110.969 107.083 111.752 106.9C112.535 106.717 113.36 106.625 114.227 106.625C115.76 106.625 116.91 106.925 117.677 107.525C118.46 108.125 118.852 108.967 118.852 110.05C118.852 110.817 118.585 111.467 118.052 112C117.519 112.533 116.81 112.85 115.927 112.95V112.625C116.944 112.658 117.752 112.95 118.352 113.5C118.969 114.033 119.277 114.75 119.277 115.65C119.277 116.733 118.835 117.6 117.952 118.25C117.069 118.9 115.76 119.225 114.027 119.225ZM125.954 119.175C125.62 119.175 125.362 119.083 125.179 118.9C125.012 118.717 124.929 118.458 124.929 118.125V107.775C124.929 107.425 125.012 107.167 125.179 107C125.362 106.817 125.62 106.725 125.954 106.725C126.27 106.725 126.512 106.817 126.679 107C126.862 107.167 126.954 107.425 126.954 107.775V111.925H129.229L132.929 107.175C133.095 106.975 133.279 106.85 133.479 106.8C133.679 106.733 133.862 106.733 134.029 106.8C134.212 106.85 134.354 106.95 134.454 107.1C134.57 107.233 134.629 107.4 134.629 107.6C134.629 107.8 134.554 108.008 134.404 108.225L130.879 112.75L130.304 112.1C130.77 112.15 131.179 112.267 131.529 112.45C131.879 112.633 132.212 112.908 132.529 113.275C132.845 113.642 133.187 114.15 133.554 114.8L135.354 117.775C135.47 118.008 135.512 118.217 135.479 118.4C135.462 118.583 135.379 118.75 135.229 118.9C135.079 119.033 134.904 119.117 134.704 119.15C134.52 119.183 134.337 119.158 134.154 119.075C133.97 118.992 133.804 118.842 133.654 118.625L131.679 115.325C131.395 114.858 131.129 114.5 130.879 114.25C130.629 113.983 130.345 113.8 130.029 113.7C129.712 113.6 129.32 113.55 128.854 113.55H126.954V118.125C126.954 118.458 126.862 118.717 126.679 118.9C126.512 119.083 126.27 119.175 125.954 119.175ZM144.438 119.225C143.605 119.225 142.855 119.067 142.188 118.75C141.538 118.417 141.021 117.967 140.638 117.4C140.255 116.833 140.063 116.2 140.063 115.5C140.063 114.6 140.288 113.892 140.738 113.375C141.205 112.858 141.963 112.492 143.013 112.275C144.08 112.058 145.53 111.95 147.363 111.95H148.488V113.275H147.388C146.038 113.275 144.971 113.342 144.188 113.475C143.421 113.592 142.88 113.8 142.563 114.1C142.263 114.4 142.113 114.825 142.113 115.375C142.113 116.058 142.346 116.617 142.813 117.05C143.296 117.483 143.946 117.7 144.763 117.7C145.43 117.7 146.013 117.542 146.513 117.225C147.03 116.908 147.43 116.475 147.713 115.925C148.013 115.375 148.163 114.742 148.163 114.025V111.175C148.163 110.142 147.955 109.4 147.538 108.95C147.121 108.483 146.438 108.25 145.488 108.25C144.905 108.25 144.321 108.325 143.738 108.475C143.155 108.625 142.538 108.867 141.888 109.2C141.655 109.317 141.455 109.358 141.288 109.325C141.121 109.275 140.988 109.183 140.888 109.05C140.788 108.917 140.73 108.767 140.713 108.6C140.696 108.417 140.73 108.242 140.813 108.075C140.913 107.908 141.063 107.775 141.263 107.675C141.996 107.308 142.721 107.042 143.438 106.875C144.155 106.708 144.838 106.625 145.488 106.625C146.538 106.625 147.405 106.8 148.088 107.15C148.771 107.483 149.28 108 149.613 108.7C149.946 109.383 150.113 110.267 150.113 111.35V118.125C150.113 118.458 150.03 118.717 149.863 118.9C149.713 119.083 149.488 119.175 149.188 119.175C148.871 119.175 148.63 119.083 148.463 118.9C148.296 118.717 148.213 118.458 148.213 118.125V116.175H148.438C148.305 116.808 148.046 117.35 147.663 117.8C147.296 118.25 146.838 118.6 146.288 118.85C145.738 119.1 145.121 119.225 144.438 119.225Z" fill="#D8ECD7"/>
</svg>
