<svg width="94" height="64" viewBox="0 0 94 64" fill="none" xmlns="http://www.w3.org/2000/svg">
<path d="M1.47757 24.2423L4.22062 21.4136C4.9782 20.6323 6.20609 20.6323 6.96366 21.4136L8.33458 22.8273L11.8376 19.2148C11.1552 16.5511 11.794 13.6024 13.8195 11.5137L19.3043 5.85745C26.8777 -1.95248 39.1578 -1.95248 46.7324 5.85745L35.7614 11.5137V13.8574C35.7614 15.9786 34.9444 18.0136 33.4887 19.5136L27.5323 25.656C25.5068 27.7448 22.6474 28.4035 20.0643 27.6998L16.5613 31.3122L17.9322 32.726C18.6898 33.5072 18.6898 34.7735 17.9322 35.5547L15.1892 38.3834C14.4316 39.1647 13.2037 39.1647 12.4461 38.3834L1.47514 27.0698C0.719986 26.2898 0.719986 25.0235 1.47757 24.2423ZM36.2317 22.3423C36.6802 21.8798 37.0608 21.3686 37.4257 20.8486L68.347 50.6196C71.4465 53.6046 71.5301 58.6433 68.5325 61.7358C65.5349 64.8282 60.6476 64.742 57.753 61.5445L28.8886 29.661C29.3686 29.2973 29.8462 28.9273 30.2753 28.4848L36.2317 22.3423Z" fill="#2B4129"/>
<path d="M93.4315 24.2423L90.6885 21.4136C89.9309 20.6323 88.703 20.6323 87.9454 21.4136L86.5745 22.8273L83.0715 19.2148C83.7539 16.5511 83.1151 13.6024 81.0896 11.5137L75.6047 5.85745C68.0314 -1.95248 55.7513 -1.95248 48.1767 5.85745L59.1477 11.5137V13.8574C59.1477 15.9786 59.9647 18.0136 61.4204 19.5136L67.3768 25.656C69.4023 27.7448 72.2617 28.4035 74.8447 27.6998L78.3478 31.3122L76.9769 32.726C76.2193 33.5072 76.2193 34.7735 76.9769 35.5547L79.7199 38.3834C80.4775 39.1647 81.7054 39.1647 82.463 38.3834L93.4339 27.0698C94.1891 26.2898 94.1891 25.0235 93.4315 24.2423ZM58.6774 22.3423C58.2289 21.8798 57.8483 21.3686 57.4834 20.8486L26.562 50.6196C23.4626 53.6046 23.379 58.6433 26.3766 61.7358C29.3742 64.8282 34.2615 64.742 37.156 61.5445L66.0205 29.661C65.5404 29.2973 65.0629 28.9273 64.6338 28.4848L58.6774 22.3423Z" fill="#2B4129"/>
</svg>
