<svg width="17" height="14" viewBox="0 0 17 14" fill="none" xmlns="http://www.w3.org/2000/svg">
<path d="M8.51066 7.74352L2.71036 13.6917C2.30946 14.1028 1.66119 14.1028 1.26455 13.6917L0.300677 12.7032C-0.100226 12.2921 -0.100226 11.6273 0.300677 11.2206L4.41207 7.00437L0.300677 2.78819C-0.100226 2.37707 -0.100226 1.71228 0.300677 1.30553L1.26029 0.308341C1.66119 -0.10278 2.30946 -0.10278 2.7061 0.308341L8.5064 6.25648C8.91157 6.6676 8.91157 7.3324 8.51066 7.74352ZM16.6993 6.25648L10.899 0.308341C10.4981 -0.10278 9.84985 -0.10278 9.45321 0.308341L8.48934 1.29678C8.08844 1.7079 8.08844 2.3727 8.48934 2.77944L12.6007 6.99563L8.48934 11.2118C8.08844 11.6229 8.08844 12.2877 8.48934 12.6945L9.45321 13.6829C9.85412 14.094 10.5024 14.094 10.899 13.6829L16.6993 7.73477C17.1002 7.3324 17.1002 6.6676 16.6993 6.25648Z" fill="#D8D8D8"/>
</svg>
