<svg width="72" height="64" viewBox="0 0 72 64" fill="none" xmlns="http://www.w3.org/2000/svg">
<path d="M49.3125 26.1875C49.3125 22.7702 52.0827 20 55.5 20C58.9173 20 61.6875 22.7702 61.6875 26.1875C61.6875 29.6047 58.9173 32.375 55.5 32.375C52.0827 32.375 49.3125 29.6047 49.3125 26.1875ZM71.1945 26.3055C70.1207 25.2315 68.3794 25.2315 67.3055 26.3055L59.8609 33.75H51.139L43.6945 26.3055C42.6206 25.2315 40.8793 25.2315 39.8055 26.3055C38.7315 27.3795 38.7315 29.1206 39.8055 30.1946L47.9375 38.3265V61.25C47.9375 62.7688 49.1687 64 50.6875 64H52.0625C53.5813 64 54.8125 62.7688 54.8125 61.25V51.625H56.1875V61.25C56.1875 62.7688 57.4187 64 58.9375 64H60.3125C61.8313 64 63.0625 62.7688 63.0625 61.25V38.3265L71.1945 30.1945C72.2685 29.1205 72.2685 27.3795 71.1945 26.3055Z" fill="#2B4129"/>
<path d="M7.81249 34.7812C7.81249 32.1406 9.91113 30 12.5 30C15.0889 30 17.1875 32.1406 17.1875 34.7812C17.1875 37.4218 15.0889 39.5625 12.5 39.5625C9.91113 39.5625 7.81249 37.4218 7.81249 34.7812ZM24.3898 34.8724C23.5763 34.0425 22.2571 34.0425 21.4436 34.8724L15.8037 40.625H9.19622L3.55643 34.8724C2.74289 34.0425 1.42375 34.0425 0.610206 34.8724C-0.203402 35.7023 -0.203402 37.0478 0.610206 37.8776L6.77083 44.1614V61.875C6.77083 63.0486 7.70357 64 8.85416 64H9.89583C11.0464 64 11.9792 63.0486 11.9792 61.875V54.4375H13.0208V61.875C13.0208 63.0486 13.9536 64 15.1042 64H16.1458C17.2964 64 18.2292 63.0486 18.2292 61.875V44.1614L24.3898 37.8776C25.2034 37.0477 25.2034 35.7023 24.3898 34.8724Z" fill="#2B4129"/>
<path d="M24 9C24 4.02938 28.0294 0 33 0C37.9706 0 42 4.02938 42 9C42 13.9705 37.9706 18 33 18C28.0294 18 24 13.9705 24 9ZM55.8284 9.17163C54.2664 7.6095 51.7337 7.6095 50.1716 9.17163L39.3431 20H26.6567L15.8284 9.17163C14.2664 7.6095 11.7336 7.6095 10.1716 9.17163C8.60947 10.7338 8.60947 13.2664 10.1716 14.8285L22 26.6567V60C22 62.2091 23.7909 64 26 64H28C30.2091 64 32 62.2091 32 60V46H34V60C34 62.2091 35.7909 64 38 64H40C42.2091 64 44 62.2091 44 60V26.6567L55.8284 14.8284C57.3905 13.2662 57.3905 10.7338 55.8284 9.17163Z" fill="#2B4129"/>
</svg>
