<svg width="39" height="39" viewBox="0 0 39 39" fill="none" xmlns="http://www.w3.org/2000/svg">
<g filter="url(#filter0_d_674_197)">
<circle cx="15.5" cy="15.5" r="9.5" fill="#F2FFF1"/>
</g>
<path d="M21.4481 17.291C21.4968 17.0156 21.4968 16.7344 21.4481 16.459L21.9319 16.168C21.9881 16.1348 22.0125 16.0664 21.9938 16.002C21.8681 15.5801 21.6525 15.1973 21.3712 14.8809C21.3281 14.832 21.2587 14.8203 21.2024 14.8535L20.7186 15.1445C20.5142 14.9629 20.2798 14.8223 20.0267 14.7285V14.1465C20.0267 14.0801 19.9817 14.0215 19.9198 14.0078C19.5016 13.9102 19.076 13.9141 18.6784 14.0078C18.6165 14.0215 18.5715 14.0801 18.5715 14.1465V14.7285C18.3184 14.8223 18.084 14.9629 17.8796 15.1445L17.3958 14.8535C17.3414 14.8203 17.2701 14.832 17.227 14.8809C16.9457 15.1973 16.7301 15.5801 16.6044 16.002C16.5857 16.0664 16.6119 16.1348 16.6663 16.168L17.1501 16.459C17.1014 16.7344 17.1014 17.0156 17.1501 17.291L16.6663 17.582C16.6101 17.6152 16.5857 17.6836 16.6044 17.748C16.7301 18.1699 16.9457 18.5508 17.227 18.8691C17.2701 18.918 17.3395 18.9297 17.3958 18.8965L17.8796 18.6055C18.084 18.7871 18.3184 18.9277 18.5715 19.0215V19.6035C18.5715 19.6699 18.6165 19.7285 18.6784 19.7422C19.0966 19.8398 19.5223 19.8359 19.9198 19.7422C19.9817 19.7285 20.0267 19.6699 20.0267 19.6035V19.0215C20.2798 18.9277 20.5142 18.7871 20.7186 18.6055L21.2024 18.8965C21.2568 18.9297 21.3281 18.918 21.3712 18.8691C21.6525 18.5527 21.8681 18.1699 21.9938 17.748C22.0125 17.6836 21.9863 17.6152 21.9319 17.582L21.4481 17.291ZM19.301 17.8223C18.7984 17.8223 18.3915 17.3965 18.3915 16.875C18.3915 16.3535 18.8003 15.9277 19.301 15.9277C19.8017 15.9277 20.2105 16.3535 20.2105 16.875C20.2105 17.3965 19.8035 17.8223 19.301 17.8223ZM14.2004 15C15.5262 15 16.6007 13.8809 16.6007 12.5C16.6007 11.1191 15.5262 10 14.2004 10C12.8747 10 11.8002 11.1191 11.8002 12.5C11.8002 13.8809 12.8747 15 14.2004 15ZM17.9733 19.4238C17.9302 19.4004 17.8871 19.373 17.8458 19.3477L17.6977 19.4375C17.5852 19.5039 17.4577 19.541 17.3301 19.541C17.1258 19.541 16.9289 19.4512 16.7882 19.2949C16.4451 18.9082 16.1825 18.4375 16.0344 17.9355C15.9313 17.5898 16.07 17.2246 16.37 17.043L16.5182 16.9531C16.5163 16.9023 16.5163 16.8516 16.5182 16.8008L16.37 16.7109C16.07 16.5312 15.9313 16.1641 16.0344 15.8184C16.0513 15.7617 16.0756 15.7051 16.0944 15.6484C16.0231 15.6426 15.9538 15.625 15.8806 15.625H15.5675C15.1512 15.8242 14.688 15.9375 14.2004 15.9375C13.7129 15.9375 13.2516 15.8242 12.8334 15.625H12.5203C11.1289 15.625 10 16.8008 10 18.25V19.0625C10 19.5801 10.4032 20 10.9001 20H17.5008C17.6902 20 17.8665 19.9375 18.0108 19.834C17.9883 19.7598 17.9733 19.6836 17.9733 19.6035V19.4238Z" fill="black"/>
<defs>
<filter id="filter0_d_674_197" x="0" y="0" width="39" height="39" filterUnits="userSpaceOnUse" color-interpolation-filters="sRGB">
<feFlood flood-opacity="0" result="BackgroundImageFix"/>
<feColorMatrix in="SourceAlpha" type="matrix" values="0 0 0 0 0 0 0 0 0 0 0 0 0 0 0 0 0 0 127 0" result="hardAlpha"/>
<feOffset dx="4" dy="4"/>
<feGaussianBlur stdDeviation="5"/>
<feComposite in2="hardAlpha" operator="out"/>
<feColorMatrix type="matrix" values="0 0 0 0 0 0 0 0 0 0 0 0 0 0 0 0 0 0 0.5 0"/>
<feBlend mode="normal" in2="BackgroundImageFix" result="effect1_dropShadow_674_197"/>
<feBlend mode="normal" in="SourceGraphic" in2="effect1_dropShadow_674_197" result="shape"/>
</filter>
</defs>
</svg>
