<svg width="30" height="30" viewBox="0 0 30 30" fill="none" xmlns="http://www.w3.org/2000/svg">
<path d="M16.8667 10.3333V2C16.8667 1.44772 17.3144 1 17.8667 1H28.0001C28.5523 1 29.0001 1.44771 29.0001 2V10.3333M16.8667 10.3333V28C16.8667 28.5523 17.3144 29 17.8667 29H28.0001C28.5523 29 29.0001 28.5523 29.0001 28V10.3333M16.8667 10.3333H29.0001M20.6001 4.73333V6.6M20.6001 15V16.8667M8.40007 5.66667H5.7334C5.18111 5.66667 4.7334 5.21895 4.7334 4.66667V2C4.7334 1.44772 5.18111 1 5.7334 1H8.40007C8.95235 1 9.40007 1.44771 9.40007 2V4.66667C9.40007 5.21895 8.95235 5.66667 8.40007 5.66667Z" stroke="#2B4129" stroke-width="2" stroke-linecap="round"/>
<path d="M9.4 5.66666L11.2913 8.81883C11.6912 9.48535 11.2111 10.3333 10.4338 10.3333H3.69952C2.92223 10.3333 2.44212 9.48535 2.84203 8.81883L4.73333 5.66666M1 16.9333V28C1 28.5523 1.44772 29 2 29H12.1333C12.6856 29 13.1333 28.5523 13.1333 28V16.9333C13.1333 16.381 12.6856 15.9333 12.1333 15.9333H2C1.44772 15.9333 1 16.381 1 16.9333Z" stroke="#2B4129" stroke-width="2" stroke-linecap="round"/>
<path d="M4.7334 19.6667H9.40006M9.40006 29V24.4C9.40006 23.8477 8.95235 23.4 8.40006 23.4H5.7334C5.18111 23.4 4.7334 23.8477 4.7334 24.4V29" stroke="#2B4129" stroke-width="2" stroke-linecap="round"/>
</svg>
