<svg width="30" height="31" viewBox="0 0 30 31" fill="none" xmlns="http://www.w3.org/2000/svg">
<path d="M7.86085 11.2042V17.2075M7.86085 20.6379L5.55542 22.9433C5.38421 23.1145 5.28803 23.3467 5.28803 23.5889V28.301C5.28803 28.8052 5.69676 29.214 6.20096 29.214H9.52073C10.0249 29.214 10.4337 28.8052 10.4337 28.301V23.5889C10.4337 23.3467 10.3375 23.1145 10.1663 22.9433L7.86085 20.6379ZM7.86085 20.6379V17.2075M7.86085 17.2075H2.42183C2.07604 17.2075 1.75992 17.0121 1.60528 16.7028L1.1981 15.8885C1.07301 15.6383 1.06951 15.3446 1.18861 15.0915L7.03481 2.6683C7.36372 1.96935 8.35797 1.96935 8.68689 2.6683L14.5331 15.0915C14.6522 15.3446 14.6487 15.6383 14.5236 15.8885L14.1164 16.7028C13.9618 17.0121 13.6457 17.2075 13.2999 17.2075H11.2913" stroke="#2B4129" stroke-width="1.82587" stroke-linecap="round"/>
<path d="M25.0131 6.9162L25.7239 3.36207C25.8092 2.93534 26.1839 2.62817 26.6191 2.62817H28.1535C28.7406 2.62817 29.1751 3.17433 29.0431 3.74639L26.8916 13.0694C26.796 13.4836 26.4271 13.7771 26.002 13.7771H20.5417C20.1409 13.7771 19.787 13.5157 19.6691 13.1326L16.8005 3.80959C16.6199 3.22252 17.0589 2.62817 17.6731 2.62817H22.4403M18.1522 15.4923L21.3211 19.4533C21.4871 19.6609 21.5545 19.9306 21.5055 20.1919L20.3934 26.1229C20.3333 26.4436 20.4489 26.772 20.6966 26.9843L22.7037 28.7047C23.0456 28.9977 23.5501 28.9977 23.892 28.7047L25.8991 26.9843C26.1469 26.772 26.2624 26.4436 26.2023 26.1229L25.0902 20.1919C25.0412 19.9306 25.1086 19.6609 25.2747 19.4533L28.4435 15.4923" stroke="#2B4129" stroke-width="1.82587" stroke-linecap="round"/>
</svg>
