<svg width="29" height="28" viewBox="0 0 29 28" fill="none" xmlns="http://www.w3.org/2000/svg">
<path d="M27.4753 12.7193V17.0858C27.4753 17.4454 27.2822 17.7773 26.9697 17.955L11.2723 26.8837C11.1217 26.9694 10.9513 27.0145 10.7779 27.0145H2.91309C2.3608 27.0145 1.91309 26.5668 1.91309 26.0145V22.9161C1.91309 22.3638 2.3608 21.9161 2.91309 21.9161H7.30363C7.85592 21.9161 8.30363 21.4684 8.30363 20.9161V19.5172C8.30363 18.9649 8.75134 18.5172 9.30363 18.5172H12.7812C13.3335 18.5172 13.7812 18.0695 13.7812 17.5172V16.1183C13.7812 15.566 14.229 15.1183 14.7812 15.1183H18.2588C18.8111 15.1183 19.2588 14.6705 19.2588 14.1183V12.7193C19.2588 12.167 19.7066 11.7193 20.2589 11.7193H26.4753C27.0275 11.7193 27.4753 12.167 27.4753 12.7193Z" stroke="#2B4129" stroke-width="1.82587" stroke-linecap="round"/>
<path d="M10.1293 12.569L1.51242 7.75683C1.19604 7.58014 1 7.24612 1 6.88375V2.52254C1 1.97025 1.44772 1.52254 2 1.52254H8.21641C8.7687 1.52254 9.21641 1.97025 9.21641 2.52254V3.92146C9.21641 4.47375 9.66413 4.92146 10.2164 4.92146H13.694C14.2463 4.92146 14.694 5.36918 14.694 5.92146V7.32039C14.694 7.87268 15.1417 8.32039 15.694 8.32039H20.1716" stroke="#2B4129" stroke-width="1.82587" stroke-linecap="round"/>
</svg>
