<svg width="30" height="32" viewBox="0 0 30 32" fill="none" xmlns="http://www.w3.org/2000/svg">
<path d="M15.9194 17.633V30.4246H28.7111V17.633L22.3153 12.5163L15.9194 17.633Z" stroke="#2B4129" stroke-width="2"/>
<rect x="20.3306" y="16.9274" width="3.96944" height="3.96944" rx="1.98472" stroke="#2B4129" stroke-width="2"/>
<rect x="12.1558" y="5.34131" width="4.11666" height="4.11666" rx="2.05833" stroke="#2B4129"/>
<path d="M14.6135 14.0038C13.2428 14.3024 11.8105 14.1016 10.5747 13.4376L9.98673 15.0746L9.09709 15.9274L6.53876 15.9274L6.53876 18.0594L4.8332 20.1913L1.42209 20.1913L1.42209 16.7802L8.0725 10.8373C7.45644 9.577 7.31077 8.13806 7.66174 6.77982C8.0127 5.42157 8.83722 4.23333 9.98674 3.42919C11.1362 2.62505 12.5352 2.2579 13.9314 2.39389C15.3277 2.52988 16.6294 3.16007 17.6022 4.1709C18.5749 5.18174 19.1546 6.50675 19.2369 7.9072C19.3192 9.30764 18.8986 10.6914 18.0509 11.8092C17.2032 12.927 15.9842 13.7053 14.6135 14.0038Z" stroke="#2B4129" stroke-width="2"/>
<path d="M11.8314 17.2066C12.6031 18.5432 13.7599 19.6161 15.1507 20.2853C16.5415 20.9544 18.1018 21.1887 19.6278 20.9575C21.1538 20.7263 22.5746 20.0404 23.7048 18.9894M25.9633 15.0657C26.3045 13.5604 26.1839 11.9873 25.6173 10.5516C25.0507 9.11598 24.0645 7.8845 22.7873 7.01795C21.5101 6.1514 20.0013 5.69005 18.4579 5.69412" stroke="#2B4129" stroke-width="2"/>
</svg>
