<svg width="29" height="23" viewBox="0 0 29 23" fill="none" xmlns="http://www.w3.org/2000/svg">
<path d="M10.1504 11.4997C13.3541 11.4997 15.9506 8.92577 15.9506 5.74986C15.9506 2.57396 13.3541 0 10.1504 0C6.94668 0 4.35017 2.57396 4.35017 5.74986C4.35017 8.92577 6.94668 11.4997 10.1504 11.4997ZM14.2106 12.9372H13.4538C12.4478 13.3954 11.3286 13.6559 10.1504 13.6559C8.97223 13.6559 7.85749 13.3954 6.84699 12.9372H6.09024C2.72792 12.9372 0 15.6414 0 18.9746V20.8433C0 22.0337 0.974257 22.9995 2.17509 22.9995H14.632C14.5232 22.694 14.4779 22.3706 14.5142 22.0426L14.8223 19.307L14.8767 18.8083L15.2347 18.4535L18.7375 14.9811C17.6273 13.7368 16.0186 12.9372 14.2106 12.9372ZM16.2633 19.4642L15.9552 22.2044C15.9053 22.6625 16.295 23.0489 16.7527 22.995L19.5123 22.6895L25.7612 16.4949L22.5121 13.2741L16.2633 19.4642ZM28.6839 12.0792L26.9665 10.3767C26.5451 9.95894 25.8563 9.95894 25.4349 10.3767L23.722 12.0747L23.5362 12.2589L26.7898 15.4797L28.6839 13.602C29.1054 13.1798 29.1054 12.5015 28.6839 12.0792Z" fill="#57C462"/>
</svg>
